<svg xmlns="http://www.w3.org/2000/svg" xmlns:xlink="http://www.w3.org/1999/xlink" width="1000" zoomAndPan="magnify" viewBox="0 0 750 749.999995" height="1000" preserveAspectRatio="xMidYMid meet" version="1.0"><defs><g/></defs><g fill="#6c63ff" fill-opacity="1"><g transform="translate(35.760023, 410.25)"><g><path d="M 23.59375 -59 L 0.40625 -59 L 0.40625 -70 L 59.796875 -70 L 59.796875 -59 L 36.59375 -59 L 36.59375 0 L 23.59375 0 Z M 23.59375 -59 "/></g></g></g><g fill="#6c63ff" fill-opacity="1"><g transform="translate(95.957705, 410.25)"><g><path d="M 38.5 -54 C 45.226562 -54 50.625 -52.03125 54.6875 -48.09375 C 58.757812 -44.164062 60.796875 -38.332031 60.796875 -30.59375 L 60.796875 0 L 48.296875 0 L 48.296875 -29 C 48.296875 -33.664062 47.195312 -37.179688 45 -39.546875 C 42.800781 -41.910156 39.664062 -43.09375 35.59375 -43.09375 C 31 -43.09375 27.367188 -41.707031 24.703125 -38.9375 C 22.035156 -36.175781 20.703125 -32.195312 20.703125 -27 L 20.703125 0 L 8.203125 0 L 8.203125 -74.203125 L 20.703125 -74.203125 L 20.703125 -47.203125 C 22.765625 -49.398438 25.3125 -51.082031 28.34375 -52.25 C 31.382812 -53.414062 34.769531 -54 38.5 -54 Z M 38.5 -54 "/></g></g></g><g fill="#6c63ff" fill-opacity="1"><g transform="translate(164.955058, 410.25)"><g><path d="M 58.40625 -26.40625 C 58.40625 -25.53125 58.335938 -24.296875 58.203125 -22.703125 L 16.296875 -22.703125 C 17.035156 -18.765625 18.953125 -15.644531 22.046875 -13.34375 C 25.148438 -11.050781 29 -9.90625 33.59375 -9.90625 C 39.46875 -9.90625 44.300781 -11.835938 48.09375 -15.703125 L 54.796875 -8 C 52.398438 -5.132812 49.367188 -2.96875 45.703125 -1.5 C 42.035156 -0.03125 37.898438 0.703125 33.296875 0.703125 C 27.429688 0.703125 22.265625 -0.460938 17.796875 -2.796875 C 13.328125 -5.128906 9.875 -8.378906 7.4375 -12.546875 C 5.007812 -16.710938 3.796875 -21.429688 3.796875 -26.703125 C 3.796875 -31.898438 4.976562 -36.582031 7.34375 -40.75 C 9.71875 -44.914062 13.003906 -48.164062 17.203125 -50.5 C 21.398438 -52.832031 26.132812 -54 31.40625 -54 C 36.601562 -54 41.25 -52.847656 45.34375 -50.546875 C 49.445312 -48.242188 52.648438 -45.007812 54.953125 -40.84375 C 57.253906 -36.675781 58.40625 -31.863281 58.40625 -26.40625 Z M 31.40625 -44 C 27.40625 -44 24.019531 -42.816406 21.25 -40.453125 C 18.476562 -38.085938 16.796875 -34.9375 16.203125 -31 L 46.5 -31 C 45.96875 -34.863281 44.332031 -37.992188 41.59375 -40.390625 C 38.863281 -42.796875 35.46875 -44 31.40625 -44 Z M 31.40625 -44 "/></g></g></g><g fill="#6c63ff" fill-opacity="1"><g transform="translate(227.152664, 410.25)"><g><path d="M 20.09375 -45.59375 C 23.695312 -51.195312 30.03125 -54 39.09375 -54 L 39.09375 -42.09375 C 38.03125 -42.300781 37.066406 -42.40625 36.203125 -42.40625 C 31.335938 -42.40625 27.535156 -40.988281 24.796875 -38.15625 C 22.066406 -35.320312 20.703125 -31.238281 20.703125 -25.90625 L 20.703125 0 L 8.203125 0 L 8.203125 -53.40625 L 20.09375 -53.40625 Z M 20.09375 -45.59375 "/></g></g></g><g fill="#6c63ff" fill-opacity="1"><g transform="translate(268.35106, 410.25)"><g><path d="M 28.59375 -54 C 36.46875 -54 42.488281 -52.113281 46.65625 -48.34375 C 50.820312 -44.582031 52.90625 -38.898438 52.90625 -31.296875 L 52.90625 0 L 41.09375 0 L 41.09375 -6.5 C 39.5625 -4.164062 37.378906 -2.378906 34.546875 -1.140625 C 31.710938 0.0859375 28.296875 0.703125 24.296875 0.703125 C 20.296875 0.703125 16.796875 0.0195312 13.796875 -1.34375 C 10.796875 -2.71875 8.476562 -4.617188 6.84375 -7.046875 C 5.21875 -9.484375 4.40625 -12.234375 4.40625 -15.296875 C 4.40625 -20.097656 6.1875 -23.945312 9.75 -26.84375 C 13.3125 -29.75 18.925781 -31.203125 26.59375 -31.203125 L 40.40625 -31.203125 L 40.40625 -32 C 40.40625 -35.726562 39.285156 -38.59375 37.046875 -40.59375 C 34.816406 -42.59375 31.5 -43.59375 27.09375 -43.59375 C 24.09375 -43.59375 21.144531 -43.125 18.25 -42.1875 C 15.351562 -41.257812 12.90625 -39.960938 10.90625 -38.296875 L 6 -47.40625 C 8.800781 -49.53125 12.164062 -51.160156 16.09375 -52.296875 C 20.03125 -53.429688 24.195312 -54 28.59375 -54 Z M 26.90625 -8.40625 C 30.03125 -8.40625 32.8125 -9.117188 35.25 -10.546875 C 37.6875 -11.984375 39.40625 -14.035156 40.40625 -16.703125 L 40.40625 -22.90625 L 27.5 -22.90625 C 20.300781 -22.90625 16.703125 -20.535156 16.703125 -15.796875 C 16.703125 -13.535156 17.597656 -11.738281 19.390625 -10.40625 C 21.191406 -9.070312 23.695312 -8.40625 26.90625 -8.40625 Z M 26.90625 -8.40625 "/></g></g></g><g fill="#1e1e1e" fill-opacity="1"><g transform="translate(345.467592, 410.25)"><g><path d="M 62.5 -13 L 62.5 0 L 8.296875 0 L 8.296875 -70 L 61.203125 -70 L 61.203125 -57 L 24.40625 -57 L 24.40625 -41.796875 L 56.90625 -41.796875 L 56.90625 -29.203125 L 24.40625 -29.203125 L 24.40625 -13 Z M 62.5 -13 "/></g></g></g><g fill="#1e1e1e" fill-opacity="1"><g transform="translate(412.565008, 410.25)"><g><path d="M 39.90625 -54.59375 C 46.570312 -54.59375 51.953125 -52.59375 56.046875 -48.59375 C 60.148438 -44.59375 62.203125 -38.660156 62.203125 -30.796875 L 62.203125 0 L 46.59375 0 L 46.59375 -28.40625 C 46.59375 -32.664062 45.660156 -35.84375 43.796875 -37.9375 C 41.929688 -40.039062 39.234375 -41.09375 35.703125 -41.09375 C 31.765625 -41.09375 28.628906 -39.875 26.296875 -37.4375 C 23.960938 -35.007812 22.796875 -31.394531 22.796875 -26.59375 L 22.796875 0 L 7.203125 0 L 7.203125 -53.796875 L 22.09375 -53.796875 L 22.09375 -47.5 C 24.164062 -49.769531 26.734375 -51.519531 29.796875 -52.75 C 32.867188 -53.976562 36.238281 -54.59375 39.90625 -54.59375 Z M 39.90625 -54.59375 "/></g></g></g><g fill="#1e1e1e" fill-opacity="1"><g transform="translate(482.262328, 410.25)"><g><path d="M 62.703125 -53.796875 L 62.703125 -9 C 62.703125 0.863281 60.132812 8.195312 55 13 C 49.863281 17.800781 42.363281 20.203125 32.5 20.203125 C 27.300781 20.203125 22.367188 19.566406 17.703125 18.296875 C 13.035156 17.035156 9.164062 15.203125 6.09375 12.796875 L 12.296875 1.59375 C 14.566406 3.46875 17.429688 4.953125 20.890625 6.046875 C 24.359375 7.148438 27.828125 7.703125 31.296875 7.703125 C 36.703125 7.703125 40.6875 6.484375 43.25 4.046875 C 45.8125 1.617188 47.09375 -2.0625 47.09375 -7 L 47.09375 -9.296875 C 43.03125 -4.828125 37.363281 -2.59375 30.09375 -2.59375 C 25.164062 -2.59375 20.648438 -3.675781 16.546875 -5.84375 C 12.453125 -8.007812 9.203125 -11.0625 6.796875 -15 C 4.398438 -18.9375 3.203125 -23.46875 3.203125 -28.59375 C 3.203125 -33.726562 4.398438 -38.257812 6.796875 -42.1875 C 9.203125 -46.125 12.453125 -49.175781 16.546875 -51.34375 C 20.648438 -53.507812 25.164062 -54.59375 30.09375 -54.59375 C 37.894531 -54.59375 43.832031 -52.03125 47.90625 -46.90625 L 47.90625 -53.796875 Z M 33.203125 -15.40625 C 37.335938 -15.40625 40.71875 -16.617188 43.34375 -19.046875 C 45.976562 -21.484375 47.296875 -24.664062 47.296875 -28.59375 C 47.296875 -32.53125 45.976562 -35.710938 43.34375 -38.140625 C 40.71875 -40.578125 37.335938 -41.796875 33.203125 -41.796875 C 29.066406 -41.796875 25.664062 -40.578125 23 -38.140625 C 20.332031 -35.710938 19 -32.53125 19 -28.59375 C 19 -24.664062 20.332031 -21.484375 23 -19.046875 C 25.664062 -16.617188 29.066406 -15.40625 33.203125 -15.40625 Z M 33.203125 -15.40625 "/></g></g></g><g fill="#1e1e1e" fill-opacity="1"><g transform="translate(552.25962, 410.25)"><g><path d="M 7.203125 -53.796875 L 22.796875 -53.796875 L 22.796875 0 L 7.203125 0 Z M 15 -61.296875 C 12.132812 -61.296875 9.800781 -62.128906 8 -63.796875 C 6.195312 -65.460938 5.296875 -67.53125 5.296875 -70 C 5.296875 -72.46875 6.195312 -74.535156 8 -76.203125 C 9.800781 -77.867188 12.132812 -78.703125 15 -78.703125 C 17.863281 -78.703125 20.195312 -77.898438 22 -76.296875 C 23.800781 -74.703125 24.703125 -72.703125 24.703125 -70.296875 C 24.703125 -67.703125 23.800781 -65.550781 22 -63.84375 C 20.195312 -62.144531 17.863281 -61.296875 15 -61.296875 Z M 15 -61.296875 "/></g></g></g><g fill="#1e1e1e" fill-opacity="1"><g transform="translate(582.35845, 410.25)"><g><path d="M 39.90625 -54.59375 C 46.570312 -54.59375 51.953125 -52.59375 56.046875 -48.59375 C 60.148438 -44.59375 62.203125 -38.660156 62.203125 -30.796875 L 62.203125 0 L 46.59375 0 L 46.59375 -28.40625 C 46.59375 -32.664062 45.660156 -35.84375 43.796875 -37.9375 C 41.929688 -40.039062 39.234375 -41.09375 35.703125 -41.09375 C 31.765625 -41.09375 28.628906 -39.875 26.296875 -37.4375 C 23.960938 -35.007812 22.796875 -31.394531 22.796875 -26.59375 L 22.796875 0 L 7.203125 0 L 7.203125 -53.796875 L 22.09375 -53.796875 L 22.09375 -47.5 C 24.164062 -49.769531 26.734375 -51.519531 29.796875 -52.75 C 32.867188 -53.976562 36.238281 -54.59375 39.90625 -54.59375 Z M 39.90625 -54.59375 "/></g></g></g><g fill="#1e1e1e" fill-opacity="1"><g transform="translate(652.055758, 410.25)"><g><path d="M 59.90625 -26.703125 C 59.90625 -26.503906 59.800781 -25.101562 59.59375 -22.5 L 18.90625 -22.5 C 19.632812 -19.164062 21.363281 -16.53125 24.09375 -14.59375 C 26.832031 -12.664062 30.234375 -11.703125 34.296875 -11.703125 C 37.097656 -11.703125 39.582031 -12.117188 41.75 -12.953125 C 43.914062 -13.785156 45.929688 -15.101562 47.796875 -16.90625 L 56.09375 -7.90625 C 51.03125 -2.101562 43.632812 0.796875 33.90625 0.796875 C 27.832031 0.796875 22.460938 -0.382812 17.796875 -2.75 C 13.128906 -5.113281 9.53125 -8.394531 7 -12.59375 C 4.46875 -16.800781 3.203125 -21.570312 3.203125 -26.90625 C 3.203125 -32.164062 4.453125 -36.910156 6.953125 -41.140625 C 9.453125 -45.378906 12.882812 -48.679688 17.25 -51.046875 C 21.613281 -53.410156 26.5 -54.59375 31.90625 -54.59375 C 37.164062 -54.59375 41.925781 -53.457031 46.1875 -51.1875 C 50.457031 -48.925781 53.8125 -45.675781 56.25 -41.4375 C 58.6875 -37.207031 59.90625 -32.296875 59.90625 -26.703125 Z M 32 -42.796875 C 28.46875 -42.796875 25.5 -41.796875 23.09375 -39.796875 C 20.695312 -37.796875 19.234375 -35.0625 18.703125 -31.59375 L 45.203125 -31.59375 C 44.671875 -35 43.203125 -37.71875 40.796875 -39.75 C 38.398438 -41.78125 35.46875 -42.796875 32 -42.796875 Z M 32 -42.796875 "/></g></g></g></svg>